<svg xmlns:xlink="http://www.w3.org/1999/xlink" xmlns="http://www.w3.org/2000/svg" width="1000" height="945" viewBox="0 0 1000 945" fill="none">
<path fill-rule="evenodd" clip-rule="evenodd" d="M142.891 0L654.377 417.546C817.129 388.867 897.198 444.721 920.817 487.665C937.444 489.351 950.936 494.92 961.408 503.7C973.374 513.732 980.339 527.065 984.081 540.809C991.438 567.828 987.02 598.745 981.117 618.747L970.504 654.712L957.209 619.651C947.399 593.779 932.307 581.479 914.921 576.739C896.66 571.761 873.848 574.58 848.411 583.527C798.248 601.17 743.94 640.467 708.618 672.164C705.735 676.874 702.666 681.831 699.444 686.943C769.226 789.691 886.477 875.848 961.354 921.459L1000 945L954.753 944.87C811.358 944.456 705.908 864.588 623.526 784.086C619.044 787.85 614.496 791.167 609.93 793.836C465.856 878.057 319.638 832.612 260.581 810.212L242.254 803.261L425.8 620.959C284.334 614.752 186.914 542.538 121.375 449.118C51.5836 349.636 17.6976 225.954 3.51307 131.28L0 107.832L156.308 182.083C152.225 137.159 148.843 87.4629 145.092 32.3418L142.891 0ZM159.152 211.389L32.3431 151.151C48.0783 239.862 80.9098 347.477 142.04 434.612C197.307 513.391 275.525 575.314 385.854 591.807C313.328 556.277 263.959 516.247 229.967 464.501C187.737 400.214 170.375 319.467 159.152 211.389ZM458.956 623.614C483.09 634.978 504.678 654.622 528.131 680.036C537.079 689.731 546.407 700.404 556.226 711.639C571.381 728.978 587.704 747.655 605.6 766.138C602.629 768.527 599.819 770.498 597.192 772.033C476.345 842.677 353.169 815.316 288.129 793.283L458.956 623.614ZM623.724 748.565C606.374 730.665 591.029 713.091 576.271 696.187C566.286 684.751 556.569 673.622 546.681 662.906C520.393 634.421 493.563 609.734 460.704 596.888C353.295 554.9 290.367 510.463 251.065 450.633C214.223 394.548 197.106 323.447 185.919 224.104L634.357 437.125C598.047 524.472 621.508 611.029 669.369 687.084C655.126 708.924 639.139 731.452 623.724 748.565ZM641.597 766.44C712.445 835.591 797.234 900.696 906.447 916.161C835.313 868.066 745.228 795.242 684.603 709.832C671.347 729.646 656.455 750.099 641.597 766.44ZM684.431 663.302C685.661 661.307 686.863 659.348 688.033 657.43C688.951 655.927 689.88 654.399 690.824 652.847C705.74 628.319 724.269 597.85 755.606 568.673C777.379 548.401 805.105 528.936 841.827 512.13C758.391 504.623 691.586 473.607 656.251 450.326C627.707 522.613 644.273 595.305 684.431 663.302ZM685.17 438.413C805.876 423.238 866.781 460.013 890.663 488.397C801.773 491.007 727.551 462.447 685.17 438.413ZM914.217 512.484C928.777 513.208 938.518 517.458 945.192 523.054C952.244 528.967 956.961 537.299 959.724 547.446C962.375 557.184 963.064 568.022 962.511 578.604C951.309 565.306 937.434 556.702 921.559 552.375C896.214 545.465 867.673 549.983 840.037 559.704C812.263 569.472 783.828 585.061 757.79 602.327C762.422 597.252 767.405 592.186 772.806 587.158C802.775 559.255 846.127 532.086 914.217 512.484ZM562.2 374.893L182.848 194.69C178.822 153.202 175.531 107.383 172.036 56.3868L562.2 374.893Z" fill="#F5B17B"/>
</svg>